<svg width="64" height="64" viewBox="0 0 64 64" fill="none" xmlns="http://www.w3.org/2000/svg">
  <path d="M21 43C28 36 36 34 43 26" stroke="#1685FF" stroke-width="4.2" stroke-linecap="round" stroke-dasharray="2 7"/>
  <path d="M20 15C24.9706 15 29 19.0294 29 24C29 31 20 40 20 40C20 40 11 31 11 24C11 19.0294 15.0294 15 20 15Z" stroke="#1685FF" stroke-width="4.2" stroke-linejoin="round"/>
  <circle cx="20" cy="24" r="3.2" fill="#1685FF"/>
  <path d="M45 24C49.9706 24 54 28.0294 54 33C54 40 45 49 45 49C45 49 36 40 36 33C36 28.0294 40.0294 24 45 24Z" stroke="#1685FF" stroke-width="4.2" stroke-linejoin="round"/>
  <circle cx="45" cy="33" r="3.2" fill="#1685FF"/>
</svg>
