<svg width="64" height="64" viewBox="0 0 64 64" fill="none" xmlns="http://www.w3.org/2000/svg">
  <circle cx="20" cy="47" r="7" fill="#D9E9FF"/>
  <circle cx="45" cy="18" r="7" fill="#D9E9FF"/>
  <path d="M20 18C24.9706 18 29 22.0294 29 27C29 33.75 20 42 20 42C20 42 11 33.75 11 27C11 22.0294 15.0294 18 20 18Z" fill="#2F80FF"/>
  <circle cx="20" cy="27" r="3.75" fill="white"/>
  <path d="M45 4C49.9706 4 54 8.02944 54 13C54 19.75 45 28 45 28C45 28 36 19.75 36 13C36 8.02944 40.0294 4 45 4Z" fill="#2F80FF"/>
  <circle cx="45" cy="13" r="3.75" fill="white"/>
  <path d="M25 40C29 34.5 35 31 40 29.5" stroke="#2F80FF" stroke-width="4" stroke-linecap="round" stroke-dasharray="3.5 6"/>
</svg>
